<svg width="64" height="65" viewBox="0 0 64 65" fill="none" xmlns="http://www.w3.org/2000/svg">
<path d="M37.8519 52.071L22.3879 43.14L23.9199 40.489L39.3809 49.42L37.8519 52.071Z" fill="#515151"/>
<path d="M52.2709 55.0966C56.622 51.0338 59.3792 45.326 59.3792 38.9554C59.3792 31.1064 55.2093 24.027 48.7254 20.0509L55.9897 7.61998L54.8488 6.96982L56.6405 3.88954L51.9435 1.20898L50.1479 4.28445L48.9466 3.59866L31.0881 34.1819L32.6479 35.0719L30.4334 38.8591L34.3578 41.0995L36.5733 37.3103L38.1311 38.2003L45.6409 25.3427C47.9564 26.8012 49.8629 28.813 51.1841 31.1924C52.5054 33.5718 53.1988 36.2421 53.2003 38.9564C53.2003 47.8563 45.8718 55.0975 36.8685 55.0975H23.7099V61.209H60.75V55.0975H52.2728L52.2709 55.0966ZM19.3909 8.10157V3.24998H19.9949L19.9862 2.08645H14.4825L14.4912 3.24998H15.1401V8.10157H11.0335V3.24998H11.6356L11.6288 2.08645H6.12023L6.13094 3.24998H6.77981V8.10157H0.75V32.4038H25.3691V8.10157H19.3928H19.3909ZM23.2841 30.3464H2.83203V10.1589H6.77884V25.6856C6.77884 26.8607 7.75019 27.8152 8.92225 27.8152C10.0963 27.8104 11.0325 26.8587 11.0325 25.6856V10.1589H15.1391V25.6856C15.1391 26.8607 16.1115 27.8152 17.2835 27.8152C18.4575 27.8104 19.3938 26.8587 19.3919 25.6856V10.1589H23.2841V30.3464Z" fill="#515151"/>
</svg>
