<svg width="33" height="33" viewBox="0 0 33 33" fill="none" xmlns="http://www.w3.org/2000/svg">
<g clip-path="url(#clip0_485_485)">
<path d="M19.4261 26.2568L11.6941 21.7913L12.4601 20.4658L20.1906 24.9313L19.4261 26.2568Z" fill="#515151"/>
<path d="M26.6354 27.7696C28.811 25.7382 30.1896 22.8843 30.1896 19.699C30.1896 15.7745 28.1046 12.2348 24.8627 10.2468L28.4948 4.0313L27.9244 3.70623L28.8202 2.16608L26.4717 0.825806L25.5739 2.36354L24.9733 2.02064L16.044 17.3123L16.8239 17.7572L15.7167 19.6509L17.6789 20.7711L18.7866 18.8765L19.5656 19.3215L23.3204 12.8927C24.4782 13.6219 25.4314 14.6278 26.0921 15.8175C26.7527 17.0072 27.0994 18.3423 27.1002 19.6995C27.1002 24.1495 23.4359 27.7701 18.9342 27.7701H12.3549V30.8258H30.875V27.7701H26.6364L26.6354 27.7696ZM10.1954 4.2721V1.84631H10.4975L10.4931 1.26454H7.74123L7.74562 1.84631H8.07005V4.2721H6.01676V1.84631H6.31781L6.3144 1.26454H3.56011L3.56547 1.84631H3.88991V4.2721H0.875V16.4232H13.1845V4.2721H10.1964H10.1954ZM12.142 15.3945H1.91602V5.30079H3.88942V13.0641C3.88942 13.6516 4.3751 14.1289 4.96113 14.1289C5.54813 14.1265 6.01627 13.6507 6.01627 13.0641V5.30079H8.06956V13.0641C8.06956 13.6516 8.55573 14.1289 9.14176 14.1289C9.72876 14.1265 10.1969 13.6507 10.1959 13.0641V5.30079H12.142V15.3945Z" fill="#515151"/>
</g>
<defs>
<clipPath id="clip0_485_485">
<rect width="32" height="32" fill="white" transform="translate(0.5 0.471313)"/>
</clipPath>
</defs>
</svg>
