<svg width="163" height="39" viewBox="0 0 163 39" fill="none" xmlns="http://www.w3.org/2000/svg">
<path d="M3.90625 7.75H7.40625L13.9844 25.2969L20.5469 7.75H24.0469L15.3594 30.5H12.5781L3.90625 7.75ZM2.3125 7.75H5.64062L6.21875 22.9375V30.5H2.3125V7.75ZM22.3125 7.75H25.6562V30.5H21.7344V22.9375L22.3125 7.75ZM37.3906 30.8125C36.1406 30.8125 35.0104 30.6094 34 30.2031C33 29.7865 32.1458 29.2083 31.4375 28.4688C30.7396 27.7292 30.2031 26.8594 29.8281 25.8594C29.4531 24.8594 29.2656 23.7812 29.2656 22.625V22C29.2656 20.6771 29.4583 19.4792 29.8438 18.4062C30.2292 17.3333 30.7656 16.4167 31.4531 15.6562C32.1406 14.8854 32.9531 14.2969 33.8906 13.8906C34.8281 13.4844 35.8438 13.2812 36.9375 13.2812C38.1458 13.2812 39.2031 13.4844 40.1094 13.8906C41.0156 14.2969 41.7656 14.8698 42.3594 15.6094C42.9635 16.3385 43.4115 17.2083 43.7031 18.2188C44.0052 19.2292 44.1562 20.3438 44.1562 21.5625V23.1719H31.0938V20.4688H40.4375V20.1719C40.4167 19.4948 40.2812 18.8594 40.0312 18.2656C39.7917 17.6719 39.4219 17.1927 38.9219 16.8281C38.4219 16.4635 37.7552 16.2812 36.9219 16.2812C36.2969 16.2812 35.7396 16.4167 35.25 16.6875C34.7708 16.9479 34.3698 17.3281 34.0469 17.8281C33.724 18.3281 33.474 18.9323 33.2969 19.6406C33.1302 20.3385 33.0469 21.125 33.0469 22V22.625C33.0469 23.3646 33.1458 24.0521 33.3438 24.6875C33.5521 25.3125 33.8542 25.8594 34.25 26.3281C34.6458 26.7969 35.125 27.1667 35.6875 27.4375C36.25 27.6979 36.8906 27.8281 37.6094 27.8281C38.5156 27.8281 39.3229 27.6458 40.0312 27.2812C40.7396 26.9167 41.3542 26.401 41.875 25.7344L43.8594 27.6562C43.4948 28.1875 43.0208 28.6979 42.4375 29.1875C41.8542 29.6667 41.1406 30.0573 40.2969 30.3594C39.4635 30.6615 38.4948 30.8125 37.3906 30.8125ZM57.4062 27V6.5H61.1875V30.5H57.7656L57.4062 27ZM46.4062 22.2344V21.9062C46.4062 20.625 46.5573 19.4583 46.8594 18.4062C47.1615 17.3438 47.599 16.4323 48.1719 15.6719C48.7448 14.901 49.4427 14.3125 50.2656 13.9062C51.0885 13.4896 52.0156 13.2812 53.0469 13.2812C54.0677 13.2812 54.9635 13.4792 55.7344 13.875C56.5052 14.2708 57.1615 14.8385 57.7031 15.5781C58.2448 16.3073 58.6771 17.1823 59 18.2031C59.3229 19.2135 59.5521 20.3385 59.6875 21.5781V22.625C59.5521 23.8333 59.3229 24.9375 59 25.9375C58.6771 26.9375 58.2448 27.8021 57.7031 28.5312C57.1615 29.2604 56.5 29.8229 55.7188 30.2188C54.9479 30.6146 54.0469 30.8125 53.0156 30.8125C51.9948 30.8125 51.0729 30.599 50.25 30.1719C49.4375 29.7448 48.7448 29.1458 48.1719 28.375C47.599 27.6042 47.1615 26.6979 46.8594 25.6562C46.5573 24.6042 46.4062 23.4635 46.4062 22.2344ZM50.1719 21.9062V22.2344C50.1719 23.0052 50.2396 23.724 50.375 24.3906C50.5208 25.0573 50.7448 25.6458 51.0469 26.1562C51.349 26.6562 51.7396 27.0521 52.2188 27.3438C52.7083 27.625 53.2917 27.7656 53.9688 27.7656C54.8229 27.7656 55.526 27.5781 56.0781 27.2031C56.6302 26.8281 57.0625 26.3229 57.375 25.6875C57.6979 25.0417 57.9167 24.3229 58.0312 23.5312V20.7031C57.9688 20.0885 57.8385 19.5156 57.6406 18.9844C57.4531 18.4531 57.1979 17.9896 56.875 17.5938C56.5521 17.1875 56.151 16.875 55.6719 16.6562C55.2031 16.4271 54.6458 16.3125 54 16.3125C53.3125 16.3125 52.7292 16.4583 52.25 16.75C51.7708 17.0417 51.375 17.4427 51.0625 17.9531C50.7604 18.4635 50.5365 19.0573 50.3906 19.7344C50.2448 20.4115 50.1719 21.1354 50.1719 21.9062ZM69.1562 13.5938V30.5H65.375V13.5938H69.1562ZM65.125 9.15625C65.125 8.58333 65.3125 8.10938 65.6875 7.73438C66.0729 7.34896 66.6042 7.15625 67.2812 7.15625C67.9479 7.15625 68.474 7.34896 68.8594 7.73438C69.2448 8.10938 69.4375 8.58333 69.4375 9.15625C69.4375 9.71875 69.2448 10.1875 68.8594 10.5625C68.474 10.9375 67.9479 11.125 67.2812 11.125C66.6042 11.125 66.0729 10.9375 65.6875 10.5625C65.3125 10.1875 65.125 9.71875 65.125 9.15625ZM87.9062 27.3906V30.5H76.4844V27.3906H87.9062ZM77.5781 7.75V30.5H73.6562V7.75H77.5781ZM94.5938 13.5938V30.5H90.8125V13.5938H94.5938ZM90.5625 9.15625C90.5625 8.58333 90.75 8.10938 91.125 7.73438C91.5104 7.34896 92.0417 7.15625 92.7188 7.15625C93.3854 7.15625 93.9115 7.34896 94.2969 7.73438C94.6823 8.10938 94.875 8.58333 94.875 9.15625C94.875 9.71875 94.6823 10.1875 94.2969 10.5625C93.9115 10.9375 93.3854 11.125 92.7188 11.125C92.0417 11.125 91.5104 10.9375 91.125 10.5625C90.75 10.1875 90.5625 9.71875 90.5625 9.15625ZM102.453 17.2031V30.5H98.6875V13.5938H102.234L102.453 17.2031ZM101.781 21.4219L100.562 21.4062C100.573 20.2083 100.74 19.1094 101.062 18.1094C101.396 17.1094 101.854 16.25 102.438 15.5312C103.031 14.8125 103.74 14.2604 104.562 13.875C105.385 13.4792 106.302 13.2812 107.312 13.2812C108.125 13.2812 108.859 13.3958 109.516 13.625C110.182 13.8438 110.75 14.2031 111.219 14.7031C111.698 15.2031 112.062 15.8542 112.312 16.6562C112.562 17.4479 112.688 18.4219 112.688 19.5781V30.5H108.906V19.5625C108.906 18.75 108.786 18.1094 108.547 17.6406C108.318 17.1615 107.979 16.8229 107.531 16.625C107.094 16.4167 106.547 16.3125 105.891 16.3125C105.245 16.3125 104.667 16.4479 104.156 16.7188C103.646 16.9896 103.214 17.3594 102.859 17.8281C102.516 18.2969 102.25 18.8385 102.062 19.4531C101.875 20.0677 101.781 20.724 101.781 21.4219ZM120.328 6.5V30.5H116.547V6.5H120.328ZM130.828 13.5938L123.469 21.75L119.438 25.875L118.453 22.6875L121.5 18.9219L126.281 13.5938H130.828ZM127.094 30.5L121.609 22.5625L123.984 19.9219L131.453 30.5H127.094Z" fill="white"/>
<circle cx="149.45" cy="7.5" r="3" fill="white"/>
<circle cx="149.45" cy="17.625" r="3" fill="white"/>
<circle cx="149.45" cy="27.75" r="3" fill="white"/>
<circle cx="140" cy="17.625" r="3" fill="white"/>
<circle cx="159.575" cy="17.625" r="3" fill="white"/>
</svg>
