<svg width="61" height="61" viewBox="0 0 61 61" fill="none" xmlns="http://www.w3.org/2000/svg">
<circle cx="30.5" cy="30.9713" r="30" fill="#515151"/>
<path d="M36.0977 37.1901V38.9713H24.9297V37.4127L30.5195 31.1901C31.207 30.4244 31.7383 29.776 32.1133 29.2448C32.4961 28.7057 32.7617 28.2252 32.9102 27.8033C33.0664 27.3737 33.1445 26.9362 33.1445 26.4908C33.1445 25.9283 33.0273 25.4205 32.793 24.9674C32.5664 24.5065 32.2305 24.1393 31.7852 23.8658C31.3398 23.5924 30.8008 23.4557 30.168 23.4557C29.4102 23.4557 28.7773 23.6041 28.2695 23.901C27.7695 24.1901 27.3945 24.5963 27.1445 25.1198C26.8945 25.6432 26.7695 26.2448 26.7695 26.9244H24.6016C24.6016 25.9635 24.8125 25.0846 25.2344 24.2877C25.6562 23.4908 26.2812 22.858 27.1094 22.3893C27.9375 21.9127 28.957 21.6744 30.168 21.6744C31.2461 21.6744 32.168 21.8658 32.9336 22.2487C33.6992 22.6237 34.2852 23.1549 34.6914 23.8424C35.1055 24.5221 35.3125 25.319 35.3125 26.233C35.3125 26.733 35.2266 27.2408 35.0547 27.7565C34.8906 28.2643 34.6602 28.7721 34.3633 29.2799C34.0742 29.7877 33.7344 30.2877 33.3438 30.7799C32.9609 31.2721 32.5508 31.7565 32.1133 32.233L27.543 37.1901H36.0977Z" fill="white"/>
</svg>
