<svg width="60" height="60" viewBox="0 0 60 60" fill="none" xmlns="http://www.w3.org/2000/svg">
<path d="M24.9501 38.75H27.4501V31.25H34.9501V28.75H27.4501V21.25H24.9501V28.75H17.4501V31.25H24.9501V38.75ZM12.7426 47.5C11.5926 47.5 10.6317 47.115 9.86008 46.345C9.08842 45.575 8.70342 44.6142 8.70508 43.4625V16.5375C8.70508 15.3875 9.09008 14.4275 9.86008 13.6575C10.6301 12.8875 11.5901 12.5017 12.7401 12.5H39.6651C40.8151 12.5 41.7751 12.8858 42.5451 13.6575C43.3151 14.4292 43.7009 15.39 43.7026 16.54V28.1725L51.2976 20.5775V39.4225L43.7026 31.8275V43.4625C43.7026 44.6125 43.3167 45.5733 42.5451 46.345C41.7734 47.1167 40.8134 47.5017 39.6651 47.5H12.7426Z" fill="#515151"/>
</svg>
