<svg width="60" height="60" viewBox="0 0 60 60" fill="none" xmlns="http://www.w3.org/2000/svg">
<path d="M22 28C19.3478 28 16.8043 26.9464 14.9289 25.0711C13.0536 23.1957 12 20.6522 12 18V10C12 9.46957 12.2107 8.96086 12.5858 8.58579C12.9609 8.21071 13.4696 8 14 8H16C16.5304 8 17.0391 7.78929 17.4142 7.41421C17.7893 7.03914 18 6.53043 18 6C18 5.46957 17.7893 4.96086 17.4142 4.58579C17.0391 4.21071 16.5304 4 16 4H14C12.4087 4 10.8826 4.63214 9.75736 5.75736C8.63214 6.88258 8 8.4087 8 10V18C8.00257 20.2595 8.55354 22.4846 9.6056 24.4842C10.6577 26.4838 12.1794 28.1981 14.04 29.48C15.8295 31.0545 17.2804 32.9762 18.3049 35.1283C19.3294 37.2805 19.9061 39.6183 20 42C20 45.713 21.475 49.274 24.1005 51.8995C26.726 54.525 30.287 56 34 56C37.713 56 41.274 54.525 43.8995 51.8995C46.525 49.274 48 45.713 48 42V39.72C49.8853 39.2332 51.5284 38.0755 52.6212 36.464C53.714 34.8524 54.1816 32.8976 53.9362 30.966C53.6909 29.0344 52.7495 27.2585 51.2885 25.9714C49.8274 24.6842 47.9471 23.974 46 23.974C44.0529 23.974 42.1726 24.6842 40.7115 25.9714C39.2505 27.2585 38.3091 29.0344 38.0638 30.966C37.8184 32.8976 38.286 34.8524 39.3788 36.464C40.4716 38.0755 42.1147 39.2332 44 39.72V42C44 44.6522 42.9464 47.1957 41.0711 49.0711C39.1957 50.9464 36.6522 52 34 52C31.3478 52 28.8043 50.9464 26.9289 49.0711C25.0536 47.1957 24 44.6522 24 42C24.0989 39.6153 24.6819 37.2757 25.7133 35.1234C26.7448 32.9711 28.2032 31.051 30 29.48C31.8533 28.1937 33.3672 26.4774 34.4121 24.478C35.4571 22.4787 36.0019 20.2559 36 18V10C36 8.4087 35.3679 6.88258 34.2426 5.75736C33.1174 4.63214 31.5913 4 30 4H28C27.4696 4 26.9609 4.21071 26.5858 4.58579C26.2107 4.96086 26 5.46957 26 6C26 6.53043 26.2107 7.03914 26.5858 7.41421C26.9609 7.78929 27.4696 8 28 8H30C30.5304 8 31.0391 8.21071 31.4142 8.58579C31.7893 8.96086 32 9.46957 32 10V18C32 19.3132 31.7413 20.6136 31.2388 21.8268C30.7362 23.0401 29.9997 24.1425 29.0711 25.0711C28.1425 25.9997 27.0401 26.7362 25.8268 27.2388C24.6136 27.7413 23.3132 28 22 28ZM46 36C44.9391 36 43.9217 35.5786 43.1716 34.8284C42.4214 34.0783 42 33.0609 42 32C42 30.9391 42.4214 29.9217 43.1716 29.1716C43.9217 28.4214 44.9391 28 46 28C47.0609 28 48.0783 28.4214 48.8284 29.1716C49.5786 29.9217 50 30.9391 50 32C50 33.0609 49.5786 34.0783 48.8284 34.8284C48.0783 35.5786 47.0609 36 46 36Z" fill="#515151"/>
</svg>
