<svg width="49" height="49" viewBox="0 0 49 49" fill="none" xmlns="http://www.w3.org/2000/svg">
<circle cx="24.325" cy="24.5" r="24" fill="white"/>
<path d="M27.2584 12.3333C25.6229 12.3333 24.0543 12.983 22.8979 14.1395C21.7414 15.296 21.0917 16.8645 21.0917 18.5V21.9333H17.7917C17.6264 21.9333 17.4917 22.0667 17.4917 22.2333V26.7667C17.4917 26.932 17.625 27.0667 17.7917 27.0667H21.0917V36.3667C21.0917 36.532 21.225 36.6667 21.3917 36.6667H25.925C26.0904 36.6667 26.225 36.5333 26.225 36.3667V27.0667H29.5544C29.6917 27.0667 29.8117 26.9733 29.845 26.84L30.9784 22.3067C30.9895 22.2624 30.9904 22.2162 30.981 22.1716C30.9717 22.1269 30.9522 22.085 30.9242 22.049C30.8962 22.013 30.8603 21.9839 30.8193 21.9639C30.7783 21.9438 30.7333 21.9334 30.6877 21.9333H26.225V18.5C26.225 18.3643 26.2518 18.2299 26.3037 18.1046C26.3556 17.9792 26.4317 17.8653 26.5277 17.7693C26.6236 17.6734 26.7376 17.5973 26.8629 17.5453C26.9883 17.4934 27.1227 17.4667 27.2584 17.4667H30.725C30.8904 17.4667 31.025 17.3333 31.025 17.1667V12.6333C31.025 12.468 30.8917 12.3333 30.725 12.3333H27.2584Z" fill="#515151"/>
</svg>
