<svg width="49" height="49" viewBox="0 0 49 49" fill="none" xmlns="http://www.w3.org/2000/svg">
<circle cx="24.325" cy="24.5" r="24" fill="white"/>
<g clip-path="url(#clip0_597_1981)">
<path d="M24.3321 17.0469C19.7892 17.0469 16.1249 20.5203 16.1249 24.8266C16.1249 29.1328 19.7892 32.6062 24.3321 32.6062C28.8749 32.6062 32.5392 29.1328 32.5392 24.8266C32.5392 20.5203 28.8749 17.0469 24.3321 17.0469ZM24.3321 29.8844C21.3964 29.8844 18.9964 27.6161 18.9964 24.8266C18.9964 22.037 21.3892 19.7687 24.3321 19.7687C27.2749 19.7687 29.6678 22.037 29.6678 24.8266C29.6678 27.6161 27.2678 29.8844 24.3321 29.8844ZM34.7892 16.7286C34.7892 17.7375 33.9321 18.5432 32.8749 18.5432C31.8107 18.5432 30.9607 17.7307 30.9607 16.7286C30.9607 15.7266 31.8178 14.9141 32.8749 14.9141C33.9321 14.9141 34.7892 15.7266 34.7892 16.7286ZM40.2249 18.5703C40.1035 16.1396 39.5178 13.9865 37.6392 12.2125C35.7678 10.4385 33.4964 9.88333 30.9321 9.76146C28.2892 9.61927 20.3678 9.61927 17.7249 9.76146C15.1678 9.87656 12.8964 10.4318 11.0178 12.2057C9.13922 13.9797 8.56065 16.1328 8.43208 18.5635C8.28208 21.0687 8.28208 28.5776 8.43208 31.0828C8.55351 33.5135 9.13922 35.6667 11.0178 37.4406C12.8964 39.2146 15.1607 39.7698 17.7249 39.8917C20.3678 40.0339 28.2892 40.0339 30.9321 39.8917C33.4964 39.7766 35.7678 39.2214 37.6392 37.4406C39.5107 35.6667 40.0964 33.5135 40.2249 31.0828C40.3749 28.5776 40.3749 21.0755 40.2249 18.5703ZM36.8106 33.7708C36.2535 35.0979 35.1749 36.1203 33.7678 36.6552C31.6607 37.4474 26.6607 37.2646 24.3321 37.2646C22.0035 37.2646 16.9964 37.4406 14.8964 36.6552C13.4964 36.1271 12.4178 35.1047 11.8535 33.7708C11.0178 31.7734 11.2107 27.0339 11.2107 24.8266C11.2107 22.6193 11.0249 17.8729 11.8535 15.8823C12.4107 14.5552 13.4892 13.5328 14.8964 12.9979C17.0035 12.2057 22.0035 12.3885 24.3321 12.3885C26.6607 12.3885 31.6678 12.2125 33.7678 12.9979C35.1678 13.526 36.2464 14.5484 36.8106 15.8823C37.6464 17.8797 37.4535 22.6193 37.4535 24.8266C37.4535 27.0339 37.6464 31.7802 36.8106 33.7708Z" fill="#515151"/>
</g>
<defs>
<clipPath id="clip0_597_1981">
<rect width="32" height="34.6667" fill="white" transform="translate(8.32495 7.5)"/>
</clipPath>
</defs>
</svg>
