<svg width="157" height="37" viewBox="0 0 157 37" fill="none" xmlns="http://www.w3.org/2000/svg">
<path d="M4.41319 6.85287H7.75973L14.0494 23.6304L20.3242 6.85287H23.6707L15.3641 28.6053H12.7048L4.41319 6.85287ZM2.88933 6.85287H6.07152L6.6243 21.3744V28.6053H2.88933V6.85287ZM22.0124 6.85287H25.2095V28.6053H21.4596V21.3744L22.0124 6.85287ZM36.4294 28.9041C35.2342 28.9041 34.1535 28.7099 33.1874 28.3215C32.2313 27.9231 31.4145 27.3703 30.7373 26.6632C30.07 25.956 29.557 25.1244 29.1985 24.1682C28.8399 23.212 28.6606 22.1812 28.6606 21.0756V20.478C28.6606 19.2131 28.8449 18.0677 29.2134 17.0419C29.5819 16.016 30.0949 15.1395 30.7522 14.4125C31.4096 13.6754 32.1864 13.1127 33.0828 12.7242C33.9792 12.3358 34.9503 12.1416 35.9961 12.1416C37.1515 12.1416 38.1624 12.3358 39.0289 12.7242C39.8954 13.1127 40.6125 13.6605 41.1803 14.3676C41.7579 15.0648 42.1862 15.8965 42.4651 16.8626C42.7539 17.8287 42.8983 18.8944 42.8983 20.0597V21.5985H30.4086V19.0139H39.3426V18.7301C39.3227 18.0827 39.1932 17.4751 38.9542 16.9074C38.7251 16.3397 38.3716 15.8815 37.8935 15.5329C37.4154 15.1843 36.778 15.01 35.9812 15.01C35.3836 15.01 34.8507 15.1395 34.3826 15.3985C33.9244 15.6475 33.541 16.011 33.2322 16.4891C32.9235 16.9672 32.6844 17.5449 32.5151 18.2221C32.3558 18.8894 32.2761 19.6414 32.2761 20.478V21.0756C32.2761 21.7828 32.3707 22.4402 32.5599 23.0477C32.7591 23.6453 33.048 24.1682 33.4265 24.6164C33.8049 25.0646 34.2631 25.4182 34.8009 25.6771C35.3388 25.9261 35.9513 26.0506 36.6385 26.0506C37.505 26.0506 38.2769 25.8763 38.9542 25.5277C39.6315 25.1791 40.2191 24.6861 40.7171 24.0487L42.6145 25.8863C42.2659 26.3942 41.8127 26.8823 41.255 27.3504C40.6972 27.8086 40.0149 28.182 39.2082 28.4709C38.4114 28.7597 37.4851 28.9041 36.4294 28.9041ZM55.5674 25.2588V5.65768H59.1828V28.6053H55.911L55.5674 25.2588ZM45.0497 20.7021V20.3884C45.0497 19.1633 45.1941 18.0478 45.4829 17.0419C45.7718 16.026 46.1901 15.1545 46.7379 14.4274C47.2857 13.6904 47.953 13.1276 48.7398 12.7392C49.5267 12.3408 50.4131 12.1416 51.3991 12.1416C52.3752 12.1416 53.2318 12.3308 53.9688 12.7093C54.7058 13.0878 55.3333 13.6306 55.8512 14.3378C56.3691 15.0349 56.7825 15.8716 57.0912 16.8477C57.4 17.8138 57.6191 18.8894 57.7486 20.0747V21.0756C57.6191 22.231 57.4 23.2867 57.0912 24.2429C56.7825 25.1991 56.3691 26.0257 55.8512 26.7229C55.3333 27.4201 54.7008 27.958 53.9539 28.3364C53.2168 28.7149 52.3553 28.9041 51.3693 28.9041C50.3932 28.9041 49.5117 28.7 48.7249 28.2916C47.948 27.8833 47.2857 27.3106 46.7379 26.5735C46.1901 25.8365 45.7718 24.97 45.4829 23.974C45.1941 22.968 45.0497 21.8774 45.0497 20.7021ZM48.6502 20.3884V20.7021C48.6502 21.4392 48.7149 22.1264 48.8444 22.7639C48.9839 23.4013 49.198 23.964 49.4868 24.4521C49.7757 24.9301 50.1492 25.3086 50.6073 25.5875C51.0754 25.8564 51.6332 25.9909 52.2806 25.9909C53.0973 25.9909 53.7696 25.8116 54.2975 25.453C54.8253 25.0945 55.2387 24.6114 55.5375 24.0039C55.8462 23.3863 56.0554 22.6991 56.165 21.9422V19.238C56.1052 18.6504 55.9807 18.1026 55.7915 17.5947C55.6122 17.0867 55.3682 16.6435 55.0594 16.265C54.7506 15.8766 54.3672 15.5778 53.909 15.3686C53.4608 15.1495 52.928 15.0399 52.3105 15.0399C51.6531 15.0399 51.0954 15.1794 50.6372 15.4582C50.179 15.7371 49.8006 16.1206 49.5018 16.6086C49.2129 17.0967 48.9988 17.6644 48.8594 18.3118C48.7199 18.9592 48.6502 19.6514 48.6502 20.3884ZM66.8022 12.4404V28.6053H63.1867V12.4404H66.8022ZM62.9477 8.19746C62.9477 7.64967 63.1269 7.19649 63.4855 6.83793C63.854 6.46941 64.362 6.28516 65.0094 6.28516C65.6468 6.28516 66.1498 6.46941 66.5183 6.83793C66.8868 7.19649 67.0711 7.64967 67.0711 8.19746C67.0711 8.7353 66.8868 9.18349 66.5183 9.54205C66.1498 9.90061 65.6468 10.0799 65.0094 10.0799C64.362 10.0799 63.854 9.90061 63.4855 9.54205C63.1269 9.18349 62.9477 8.7353 62.9477 8.19746ZM84.73 25.6323V28.6053H73.809V25.6323H84.73ZM74.8548 6.85287V28.6053H71.1048V6.85287H74.8548ZM91.1243 12.4404V28.6053H87.5088V12.4404H91.1243ZM87.2698 8.19746C87.2698 7.64967 87.4491 7.19649 87.8076 6.83793C88.1762 6.46941 88.6841 6.28516 89.3315 6.28516C89.9689 6.28516 90.4719 6.46941 90.8404 6.83793C91.209 7.19649 91.3932 7.64967 91.3932 8.19746C91.3932 8.7353 91.209 9.18349 90.8404 9.54205C90.4719 9.90061 89.9689 10.0799 89.3315 10.0799C88.6841 10.0799 88.1762 9.90061 87.8076 9.54205C87.4491 9.18349 87.2698 8.7353 87.2698 8.19746ZM98.6391 15.8915V28.6053H95.0385V12.4404H98.4299L98.6391 15.8915ZM97.9966 19.9253L96.8313 19.9103C96.8413 18.7649 97.0007 17.7142 97.3094 16.758C97.6281 15.8019 98.0664 14.9802 98.6241 14.2929C99.1918 13.6057 99.8691 13.0778 100.656 12.7093C101.443 12.3308 102.319 12.1416 103.285 12.1416C104.062 12.1416 104.764 12.2512 105.392 12.4703C106.029 12.6794 106.572 13.023 107.02 13.5011C107.478 13.9792 107.827 14.6017 108.066 15.3686C108.305 16.1256 108.425 17.0568 108.425 18.1624V28.6053H104.809V18.1474C104.809 17.3706 104.695 16.758 104.466 16.3098C104.246 15.8517 103.923 15.528 103.495 15.3387C103.076 15.1395 102.553 15.0399 101.926 15.0399C101.308 15.0399 100.756 15.1694 100.268 15.4284C99.7795 15.6873 99.3661 16.0409 99.0275 16.4891C98.6988 16.9373 98.4448 17.4552 98.2656 18.0428C98.0863 18.6305 97.9966 19.258 97.9966 19.9253ZM115.73 5.65768V28.6053H112.115V5.65768H115.73ZM125.77 12.4404L118.733 20.239L114.879 24.1831L113.938 21.1354L116.851 17.5349L121.422 12.4404H125.77ZM122.199 28.6053L116.955 21.0159L119.226 18.491L126.367 28.6053H122.199Z" fill="#515151"/>
<circle cx="143.575" cy="7.29839" r="2.86846" fill="#515151"/>
<circle cx="143.575" cy="16.9794" r="2.86846" fill="#515151"/>
<circle cx="143.575" cy="26.6604" r="2.86846" fill="#515151"/>
<circle cx="134.54" cy="16.9794" r="2.86846" fill="#515151"/>
<circle cx="153.256" cy="16.9794" r="2.86846" fill="#515151"/>
</svg>
