<svg width="61" height="61" viewBox="0 0 61 61" fill="none" xmlns="http://www.w3.org/2000/svg">
<circle cx="30.5" cy="30.9713" r="30" fill="#515151"/>
<path d="M28.082 29.3737H29.6289C30.3867 29.3737 31.0117 29.2487 31.5039 28.9987C32.0039 28.7408 32.375 28.3932 32.6172 27.9557C32.8672 27.5104 32.9922 27.0104 32.9922 26.4557C32.9922 25.7994 32.8828 25.2487 32.6641 24.8033C32.4453 24.358 32.1172 24.0221 31.6797 23.7955C31.2422 23.569 30.6875 23.4557 30.0156 23.4557C29.4062 23.4557 28.8672 23.5768 28.3984 23.819C27.9375 24.0533 27.5742 24.3893 27.3086 24.8268C27.0508 25.2643 26.9219 25.7799 26.9219 26.3737H24.7539C24.7539 25.5065 24.9727 24.7174 25.4102 24.0065C25.8477 23.2955 26.4609 22.7291 27.25 22.3073C28.0469 21.8854 28.9688 21.6744 30.0156 21.6744C31.0469 21.6744 31.9492 21.858 32.7227 22.2252C33.4961 22.5846 34.0977 23.1237 34.5273 23.8424C34.957 24.5533 35.1719 25.4401 35.1719 26.5026C35.1719 26.9323 35.0703 27.3932 34.8672 27.8854C34.6719 28.3698 34.3633 28.8229 33.9414 29.2448C33.5273 29.6666 32.9883 30.0143 32.3242 30.2877C31.6602 30.5533 30.8633 30.6862 29.9336 30.6862H28.082V29.3737ZM28.082 31.1549V29.8541H29.9336C31.0195 29.8541 31.918 29.983 32.6289 30.2408C33.3398 30.4987 33.8984 30.8424 34.3047 31.2721C34.7188 31.7018 35.0078 32.1744 35.1719 32.6901C35.3438 33.1979 35.4297 33.7057 35.4297 34.2135C35.4297 35.0104 35.293 35.7174 35.0195 36.3346C34.7539 36.9518 34.375 37.4752 33.8828 37.9049C33.3984 38.3346 32.8281 38.6588 32.1719 38.8776C31.5156 39.0963 30.8008 39.2057 30.0273 39.2057C29.2852 39.2057 28.5859 39.1002 27.9297 38.8893C27.2812 38.6783 26.707 38.3737 26.207 37.9752C25.707 37.569 25.3164 37.0729 25.0352 36.4869C24.7539 35.8932 24.6133 35.2174 24.6133 34.4596H26.7812C26.7812 35.0533 26.9102 35.5729 27.168 36.0182C27.4336 36.4635 27.8086 36.8112 28.293 37.0612C28.7852 37.3033 29.3633 37.4244 30.0273 37.4244C30.6914 37.4244 31.2617 37.3112 31.7383 37.0846C32.2227 36.8502 32.5938 36.4987 32.8516 36.0299C33.1172 35.5612 33.25 34.9713 33.25 34.2604C33.25 33.5494 33.1016 32.9674 32.8047 32.5143C32.5078 32.0533 32.0859 31.7135 31.5391 31.4948C31 31.2682 30.3633 31.1549 29.6289 31.1549H28.082Z" fill="white"/>
</svg>
